<svg width="35" height="34" viewBox="0 0 35 34" fill="none" xmlns="http://www.w3.org/2000/svg">
<rect x="0.5" width="34" height="34" rx="10" fill="#312FA8"/>
<g clip-path="url(#clip0_42_641)">
<path opacity="0.7" d="M15.502 14.5C15.502 14.8978 15.3439 15.2794 15.0626 15.5607C14.7813 15.842 14.3998 16 14.002 16C13.6041 16 13.2226 15.842 12.9413 15.5607C12.66 15.2794 12.502 14.8978 12.502 14.5C12.502 14.1022 12.66 13.7206 12.9413 13.4393C13.2226 13.158 13.6041 13 14.002 13C14.3998 13 14.7813 13.158 15.0626 13.4393C15.3439 13.7206 15.502 14.1022 15.502 14.5Z" fill="white"/>
<path d="M11 11C10.6022 11 10.2206 11.158 9.93934 11.4393C9.65804 11.7206 9.5 12.1022 9.5 12.5V21.5C9.5 21.8978 9.65804 22.2794 9.93934 22.5607C10.2206 22.842 10.6022 23 11 23H24C24.3978 23 24.7794 22.842 25.0607 22.5607C25.342 22.2794 25.5 21.8978 25.5 21.5V12.5C25.5 12.1022 25.342 11.7206 25.0607 11.4393C24.7794 11.158 24.3978 11 24 11H11ZM24 12C24.1326 12 24.2598 12.0527 24.3536 12.1464C24.4473 12.2402 24.5 12.3674 24.5 12.5V18.5L20.725 16.553C20.6312 16.506 20.525 16.4897 20.4215 16.5064C20.3179 16.5231 20.2223 16.5719 20.148 16.646L16.438 20.356L13.778 18.584C13.682 18.5201 13.5668 18.4913 13.4519 18.5026C13.3371 18.5139 13.2297 18.5646 13.148 18.646L10.502 21V21.54C10.5008 21.5267 10.5001 21.5134 10.5 21.5V12.5C10.5 12.3674 10.5527 12.2402 10.6464 12.1464C10.7402 12.0527 10.8674 12 11 12H24Z" fill="white"/>
</g>
<defs>
<clipPath id="clip0_42_641">
<rect width="16" height="16" fill="white" transform="translate(9.5 9)"/>
</clipPath>
</defs>
</svg>
