<svg width="35" height="34" viewBox="0 0 35 34" fill="none" xmlns="http://www.w3.org/2000/svg">
<rect x="0.5" width="34" height="34" rx="10" fill="#2B6C25"/>
<g clip-path="url(#clip0_42_634)">
<path d="M14.57 17.91C15.1057 17.91 15.6195 18.1228 15.9984 18.5016C16.3772 18.8805 16.59 19.3943 16.59 19.93V24.98C16.59 25.5157 16.3772 26.0295 15.9984 26.4084C15.6195 26.7872 15.1057 27 14.57 27H9.52C8.98426 27 8.47047 26.7872 8.09164 26.4084C7.71282 26.0295 7.5 25.5157 7.5 24.98V19.93C7.5 19.3943 7.71282 18.8805 8.09164 18.5016C8.47047 18.1228 8.98426 17.91 9.52 17.91H14.57ZM25.48 17.91C26.0157 17.91 26.5295 18.1228 26.9084 18.5016C27.2872 18.8805 27.5 19.3943 27.5 19.93V24.98C27.5 25.5157 27.2872 26.0295 26.9084 26.4084C26.5295 26.7872 26.0157 27 25.48 27H20.43C19.8943 27 19.3805 26.7872 19.0016 26.4084C18.6228 26.0295 18.41 25.5157 18.41 24.98V19.93C18.41 19.3943 18.6228 18.8805 19.0016 18.5016C19.3805 18.1228 19.8943 17.91 20.43 17.91H25.48ZM14.57 7C15.1057 7 15.6195 7.21282 15.9984 7.59164C16.3772 7.97047 16.59 8.48426 16.59 9.02V14.07C16.59 14.6057 16.3772 15.1195 15.9984 15.4984C15.6195 15.8772 15.1057 16.09 14.57 16.09H9.52C8.98426 16.09 8.47047 15.8772 8.09164 15.4984C7.71282 15.1195 7.5 14.6057 7.5 14.07V9.02C7.5 8.48426 7.71282 7.97047 8.09164 7.59164C8.47047 7.21282 8.98426 7 9.52 7H14.57ZM25.48 7C26.0157 7 26.5295 7.21282 26.9084 7.59164C27.2872 7.97047 27.5 8.48426 27.5 9.02V14.07C27.5 14.6057 27.2872 15.1195 26.9084 15.4984C26.5295 15.8772 26.0157 16.09 25.48 16.09H20.43C19.8943 16.09 19.3805 15.8772 19.0016 15.4984C18.6228 15.1195 18.41 14.6057 18.41 14.07V9.02C18.41 8.48426 18.6228 7.97047 19.0016 7.59164C19.3805 7.21282 19.8943 7 20.43 7H25.48Z" fill="white"/>
</g>
<defs>
<clipPath id="clip0_42_634">
<rect width="20" height="20" fill="white" transform="translate(7.5 7)"/>
</clipPath>
</defs>
</svg>
