<svg xmlns="http://www.w3.org/2000/svg" width="40" height="40" viewBox="0 0 41 40" fill="none">
<rect x="0.791992" width="40" height="40" rx="50" fill="#3B99FC"/>
<path d="M26.5857 28.3153C26.4052 28.1995 26.2278 28.1243 26.1004 27.998C24.4764 26.3885 22.8594 24.7715 21.241 23.1561C20.9993 22.9149 20.9993 22.9149 20.7541 23.1596C19.1417 24.769 17.5297 26.3785 15.9172 27.9879C15.5587 28.3459 15.2714 28.3454 14.9084 27.9834C12.593 25.673 10.2781 23.3616 7.96323 21.0507C7.56312 20.6511 7.56262 20.3979 7.96423 19.9953C8.4235 19.5346 8.88478 19.0748 9.34656 18.616C9.69803 18.2665 9.9788 18.2706 10.3348 18.6265C11.9407 20.231 13.5462 21.8349 15.1516 23.4394C15.4168 23.7046 15.4163 23.7046 15.6806 23.4399C17.2855 21.8349 18.891 20.2305 20.4964 18.626C20.8589 18.2635 21.1372 18.2675 21.5027 18.6331C23.1202 20.249 24.7401 21.8625 26.3526 23.4835C26.5196 23.6514 26.6213 23.668 26.7978 23.491C28.4038 21.875 30.0187 20.2681 31.6307 18.6586C32.0333 18.2565 32.2935 18.2545 32.6926 18.6521C33.1594 19.1174 33.6277 19.5817 34.0915 20.05C34.4119 20.3729 34.4169 20.6607 34.0985 20.9796C31.7505 23.3286 29.4015 25.676 27.047 28.019C26.9312 28.1343 26.7662 28.2015 26.5857 28.3153Z" fill="white"/>
<path d="M21.1147 11.5742C24.0418 11.6419 26.6666 12.6843 28.8401 14.8132C29.0251 14.9942 29.2101 15.1752 29.3881 15.3627C29.6273 15.6149 29.6237 15.9273 29.371 16.182C28.8075 16.7515 28.2394 17.3161 27.6708 17.8802C27.4507 18.0983 27.3535 18.0913 27.1248 17.8817C26.5969 17.3973 26.101 16.8694 25.5289 16.4442C24.0889 15.3747 22.4494 14.9039 20.6534 14.9852C18.6499 15.0759 16.9442 15.8405 15.5192 17.2409C15.2811 17.475 15.0484 17.7142 14.8093 17.9469C14.6107 18.1394 14.4899 18.1449 14.2968 17.9539C13.7152 17.3788 13.1351 16.8022 12.563 16.2181C12.3204 15.9704 12.3174 15.6776 12.5405 15.4364C13.807 14.0656 15.268 12.9746 17.0319 12.3118C18.3155 11.8294 19.6421 11.5953 21.1147 11.5742Z" fill="white"/>
</svg>