<svg width="49" height="48" viewBox="0 0 49 48" fill="none" xmlns="http://www.w3.org/2000/svg">
<rect x="0.75" width="48" height="48" rx="24" fill="white"/>
<path fill-rule="evenodd" clip-rule="evenodd" d="M18.332 35.7297L22.2626 36.7695V35.4098L22.5835 35.0898H24.8295V36.6894V37.8091H22.423L19.455 36.5295L18.332 35.7297Z" fill="#CDBDB2"/>
<path fill-rule="evenodd" clip-rule="evenodd" d="M31.168 35.7297L27.3177 36.7695V35.4098L26.9968 35.0898H24.7508V36.6894V37.8091H27.1573L30.1251 36.5295L31.168 35.7297Z" fill="#CDBDB2"/>
<path fill-rule="evenodd" clip-rule="evenodd" d="M22.5865 32.7711L22.2656 35.4103L22.6666 35.0904H26.8378L27.319 35.4103L26.9982 32.7711L26.3565 32.3711L23.1479 32.4511L22.5865 32.7711Z" fill="#393939"/>
<path fill-rule="evenodd" clip-rule="evenodd" d="M20.418 14.9336L22.3431 19.4124L23.2255 32.4489H26.3538L27.3164 19.4124L29.0811 14.9336H20.418Z" fill="#F89C35"/>
<path fill-rule="evenodd" clip-rule="evenodd" d="M11.996 24.7704L9.75 31.2486L15.365 30.9287H18.9746V28.1295L18.8141 22.3711L18.012 23.0109L11.996 24.7704Z" fill="#F89D35"/>
<path fill-rule="evenodd" clip-rule="evenodd" d="M16.2461 25.4961L22.8237 25.6561L22.1018 29.0151L18.9734 28.2154L16.2461 25.4961Z" fill="#D87C30"/>
<path fill-rule="evenodd" clip-rule="evenodd" d="M16.2461 25.5742L18.9734 28.1335V30.6928L16.2461 25.5742Z" fill="#EA8D3A"/>
<path fill-rule="evenodd" clip-rule="evenodd" d="M18.9766 28.2148L22.1851 29.0146L23.228 32.4538L22.506 32.8536L18.9766 30.7742V28.2148Z" fill="#F89D35"/>
<path fill-rule="evenodd" clip-rule="evenodd" d="M18.9737 30.7695L18.332 35.7282L22.5835 32.7691L18.9737 30.7695Z" fill="#EB8F35"/>
<path fill-rule="evenodd" clip-rule="evenodd" d="M22.8256 25.6523L23.2267 32.4506L22.0234 28.9715L22.8256 25.6523Z" fill="#EA8E3A"/>
<path fill-rule="evenodd" clip-rule="evenodd" d="M15.2852 30.8496L18.975 30.7695L18.3333 35.7282L15.2852 30.8496Z" fill="#D87C30"/>
<path fill-rule="evenodd" clip-rule="evenodd" d="M11.5147 37.8936L18.3328 35.7341L15.2847 30.8555L9.75 31.2553L11.5147 37.8936Z" fill="#EB8F35"/>
<path fill-rule="evenodd" clip-rule="evenodd" d="M22.3424 19.418L18.8932 22.2972L16.2461 25.4963L22.8237 25.7363L22.3424 19.418Z" fill="#E8821E"/>
<path fill-rule="evenodd" clip-rule="evenodd" d="M18.332 35.7287L22.5835 32.7695L22.2626 35.3288V36.7684L19.3749 36.2085L18.332 35.7287Z" fill="#DFCEC3"/>
<path fill-rule="evenodd" clip-rule="evenodd" d="M31.168 35.7287L26.9968 32.7695L27.3177 35.3288V36.7684L30.2054 36.2085L31.168 35.7287Z" fill="#DFCEC3"/>
<path fill-rule="evenodd" clip-rule="evenodd" d="M21.059 27.0938L21.9414 28.9333L18.813 28.1335L21.059 27.0938Z" fill="#393939"/>
<path fill-rule="evenodd" clip-rule="evenodd" d="M11.4336 11.1758L22.3427 19.4135L20.4979 14.9347L11.4336 11.1758Z" fill="#E88F35"/>
<path fill-rule="evenodd" clip-rule="evenodd" d="M11.436 11.1758L9.99219 15.5746L10.7943 20.3733L10.2328 20.6932L11.035 21.413L10.3933 21.9729L11.2756 22.7726L10.7141 23.2525L11.9975 24.8521L18.0136 23.0126C20.9548 20.6665 22.3986 19.4669 22.3452 19.4136C22.2917 19.3602 18.6553 16.6143 11.436 11.1758Z" fill="#8E5A30"/>
<path fill-rule="evenodd" clip-rule="evenodd" d="M37.504 24.7704L39.75 31.2486L34.135 30.9287H30.5254V28.1295L30.6859 22.3711L31.488 23.0109L37.504 24.7704Z" fill="#F89D35"/>
<path fill-rule="evenodd" clip-rule="evenodd" d="M33.2539 25.4922L26.6764 25.6521L27.3982 29.0112L30.5266 28.2115L33.2539 25.4922Z" fill="#D87C30"/>
<path fill-rule="evenodd" clip-rule="evenodd" d="M33.2539 25.5703L30.5266 28.1296V30.6889L33.2539 25.5703Z" fill="#EA8D3A"/>
<path fill-rule="evenodd" clip-rule="evenodd" d="M30.5234 28.2109L27.3149 29.0107L26.272 32.4499L26.994 32.8497L30.5234 30.7702V28.2109Z" fill="#F89D35"/>
<path fill-rule="evenodd" clip-rule="evenodd" d="M30.5263 30.7695L31.168 35.7282L26.9968 32.849L30.5263 30.7695Z" fill="#EB8F35"/>
<path fill-rule="evenodd" clip-rule="evenodd" d="M26.6744 25.6523L26.2733 32.4506L27.4766 28.9715L26.6744 25.6523Z" fill="#EA8E3A"/>
<path fill-rule="evenodd" clip-rule="evenodd" d="M34.2148 30.8496L30.525 30.7695L31.1667 35.7282L34.2148 30.8496Z" fill="#D87C30"/>
<path fill-rule="evenodd" clip-rule="evenodd" d="M37.9853 37.8897L31.1672 35.7302L34.2153 30.8516L39.75 31.2514L37.9853 37.8897Z" fill="#EB8F35"/>
<path fill-rule="evenodd" clip-rule="evenodd" d="M27.1576 19.4141L30.6068 22.2933L33.2539 25.4924L26.6764 25.7324L27.1576 19.4141Z" fill="#E8821E"/>
<path fill-rule="evenodd" clip-rule="evenodd" d="M28.441 27.0938L27.5586 28.9333L30.687 28.1335L28.441 27.0938Z" fill="#393939"/>
<path fill-rule="evenodd" clip-rule="evenodd" d="M38.0664 11.1758L27.1573 19.4135L29.0021 14.9347L38.0664 11.1758Z" fill="#E88F35"/>
<path fill-rule="evenodd" clip-rule="evenodd" d="M38.064 11.1758L39.5078 15.5746L38.7057 20.3733L39.2672 20.6932L38.465 21.413L39.1067 21.9729L38.2244 22.7726L38.7859 23.2525L37.5025 24.8521L31.4864 23.0126C28.5452 20.6665 27.1014 19.4669 27.1548 19.4136C27.2083 19.3602 30.8447 16.6143 38.064 11.1758Z" fill="#8E5A30"/>
</svg>
