<svg width="32" height="32" viewBox="0 0 32 32" fill="none" xmlns="http://www.w3.org/2000/svg">
<circle cx="16" cy="16" r="13" fill="white"/>
<path d="M16.0001 22.9108C17.5309 22.9108 18.7718 21.6699 18.7718 20.1391C18.7718 18.6084 17.5309 17.3674 16.0001 17.3674C14.4693 17.3674 13.2284 18.6084 13.2284 20.1391C13.2284 21.6699 14.4693 22.9108 16.0001 22.9108Z" fill="black"/>
<path fill-rule="evenodd" clip-rule="evenodd" d="M16 32C27.0457 32 32 27.0457 32 16C32 4.9543 27.0457 0 16 0C4.9543 0 0 4.9543 0 16C0 27.0457 4.9543 32 16 32ZM12.9945 6.78457H17.4456V14.1196H14.6859V9.14583H12.2136L12.9945 6.78457ZM16.0001 25.2154C18.8037 25.2154 21.0764 22.9427 21.0764 20.1391C21.0764 17.3356 18.8037 15.0628 16.0001 15.0628C13.1965 15.0628 10.9238 17.3356 10.9238 20.1391C10.9238 22.9427 13.1965 25.2154 16.0001 25.2154Z" fill="black"/>
</svg>
