<svg width="35" height="34" viewBox="0 0 35 34" fill="none" xmlns="http://www.w3.org/2000/svg">
<rect x="0.5" width="34" height="34" rx="10" fill="#B94C34"/>
<path fill-rule="evenodd" clip-rule="evenodd" d="M25 16.2482V20.409C25 22.989 25 24.2798 24.3883 24.8432C24.0967 25.1123 23.7283 25.2815 23.3358 25.3265C22.5133 25.4207 21.5525 24.5707 19.6317 22.8715C18.7817 22.1207 18.3575 21.7448 17.8667 21.6465C17.6247 21.5977 17.3753 21.5977 17.1333 21.6465C16.6417 21.7448 16.2175 22.1207 15.3683 22.8715C13.4475 24.5707 12.4867 25.4207 11.6642 25.3257C11.271 25.2806 10.9024 25.1116 10.6117 24.8432C10 24.2798 10 22.9898 10 20.409V16.2473C10 12.6748 10 10.8873 11.0983 9.77734C12.1967 8.6665 13.965 8.6665 17.5 8.6665C21.0358 8.6665 22.8033 8.6665 23.9017 9.7765C25 10.8873 25 12.6748 25 16.2482ZM14.375 11.9998C14.375 11.8341 14.4408 11.6751 14.5581 11.5579C14.6753 11.4407 14.8342 11.3748 15 11.3748H20C20.1658 11.3748 20.3247 11.4407 20.4419 11.5579C20.5592 11.6751 20.625 11.8341 20.625 11.9998C20.625 12.1656 20.5592 12.3246 20.4419 12.4418C20.3247 12.559 20.1658 12.6248 20 12.6248H15C14.8342 12.6248 14.6753 12.559 14.5581 12.4418C14.4408 12.3246 14.375 12.1656 14.375 11.9998Z" fill="white"/>
</svg>
