<svg width="35" height="34" viewBox="0 0 35 34" fill="none" xmlns="http://www.w3.org/2000/svg">
<rect x="0.5" width="34" height="34" rx="10" fill="#E1C7ED"/>
<path fill-rule="evenodd" clip-rule="evenodd" d="M26.688 13.004C26.626 13 26.558 13 26.488 13H23.715C21.444 13 19.5 14.736 19.5 17C19.5 19.264 21.444 21 23.715 21H26.488C26.558 21 26.626 21 26.688 20.996C27.611 20.94 28.427 20.239 28.496 19.259C28.5 19.195 28.5 19.126 28.5 19.062V14.938C28.5 14.874 28.5 14.805 28.496 14.741C28.427 13.761 27.611 13.061 26.688 13.004ZM23.471 18.067C24.055 18.067 24.529 17.589 24.529 17C24.529 16.41 24.055 15.933 23.471 15.933C22.886 15.933 22.411 16.411 22.411 17C22.411 17.59 22.886 18.067 23.471 18.067Z" fill="#79279F"/>
<path d="M26.64 13.002C26.64 11.821 26.596 10.554 25.842 9.647C25.7683 9.55815 25.6905 9.47272 25.609 9.391C24.86 8.643 23.911 8.311 22.739 8.153C21.599 8 20.144 8 18.306 8H16.194C14.356 8 12.9 8 11.76 8.153C10.588 8.311 9.639 8.643 8.89 9.391C8.142 10.14 7.81 11.089 7.652 12.261C7.5 13.401 7.5 14.856 7.5 16.694V16.806C7.5 18.644 7.5 20.1 7.653 21.239C7.811 22.411 8.143 23.36 8.891 24.109C9.64 24.857 10.589 25.189 11.761 25.347C12.901 25.5 14.356 25.5 16.194 25.5H18.306C20.144 25.5 21.6 25.5 22.739 25.347C23.911 25.189 24.86 24.857 25.609 24.109C25.8082 23.9092 25.9846 23.6878 26.135 23.449C26.585 22.729 26.639 21.847 26.639 20.999L26.489 21H23.715C21.444 21 19.5 19.264 19.5 17C19.5 14.736 21.444 13 23.715 13H26.488C26.54 13 26.592 13 26.64 13.002Z" fill="white"/>
<path d="M11.25 12C11.0511 12 10.8603 12.079 10.7197 12.2197C10.579 12.3603 10.5 12.5511 10.5 12.75C10.5 12.9489 10.579 13.1397 10.7197 13.2803C10.8603 13.421 11.0511 13.5 11.25 13.5H15.25C15.4489 13.5 15.6397 13.421 15.7803 13.2803C15.921 13.1397 16 12.9489 16 12.75C16 12.5511 15.921 12.3603 15.7803 12.2197C15.6397 12.079 15.4489 12 15.25 12H11.25Z" fill="#79279F"/>
</svg>
